# xmcd
#
# Track frame offsets: 
#        150
#        15050
#        34691
#        53637
#        72426
#        93189
#        111449
#        137779
#        152286
#        164598
#        187788
#        215703
#
# Disc length: 3051 seconds
#
# Revision: 0
# Processed by: cddbd v1.5.2PL0 Copyright (c) Steve Scherf et al.
# Submitted via: ExactAudioCopyFreeDBPlugin 1.0
#
DISCID=950be90c
DTITLE=Randolph, Robert and the Family Band - Lickety Split
DYEAR=2013
DGENRE=Blues
TTITLE0=Amped Up
TTITLE1=Born Again
TTITLE2=New Orleans
TTITLE3=Take the Party (feat. Trombone Shorty)
TTITLE4=Brand New Wayo (feat. Carlos Santana)
TTITLE5=Lickety Split
TTITLE6=Blacky Joe (feat. Carlos Santana)
TTITLE7=Love Rollercoaster
TTITLE8=All American
TTITLE9=Get Ready
TTITLE10=Welcome Home
TTITLE11=Good Lovin'
EXTD=
EXTT0=
EXTT1=
EXTT2=
EXTT3=
EXTT4=
EXTT5=
EXTT6=
EXTT7=
EXTT8=
EXTT9=
EXTT10=
EXTT11=
PLAYORDER=
